<svg width="20" height="20" viewBox="0 0 20 20" fill="none" xmlns="http://www.w3.org/2000/svg">
<circle cx="10" cy="10" r="10" fill="#272727"/>
<path d="M10.0029 5.90057C11.3397 5.90057 11.4979 5.90643 12.0236 5.92987C12.5122 5.95136 12.776 6.03341 12.9519 6.10178C13.1845 6.19164 13.3526 6.30104 13.5265 6.4749C13.7024 6.65071 13.8098 6.81676 13.8997 7.04923C13.9681 7.22504 14.0502 7.49072 14.0717 7.97714C14.0952 8.50459 14.101 8.66283 14.101 9.99707C14.101 11.3333 14.0952 11.4915 14.0717 12.017C14.0502 12.5054 13.9681 12.7691 13.8997 12.9449C13.8098 13.1774 13.7004 13.3454 13.5265 13.5192C13.3506 13.6951 13.1845 13.8025 12.9519 13.8924C12.776 13.9607 12.5103 14.0428 12.0236 14.0643C11.496 14.0877 11.3377 14.0936 10.0029 14.0936C8.66621 14.0936 8.50791 14.0877 7.98222 14.0643C7.49365 14.0428 7.22982 13.9607 7.05394 13.8924C6.82138 13.8025 6.65331 13.6931 6.47938 13.5192C6.3035 13.3434 6.19601 13.1774 6.10612 12.9449C6.03772 12.7691 5.95564 12.5034 5.93414 12.017C5.91069 11.4896 5.90483 11.3313 5.90483 9.99707C5.90483 8.66087 5.91069 8.50264 5.93414 7.97714C5.95564 7.48877 6.03772 7.22504 6.10612 7.04923C6.19601 6.81676 6.30545 6.64876 6.47938 6.4749C6.65527 6.29908 6.82138 6.19164 7.05394 6.10178C7.22982 6.03341 7.4956 5.95136 7.98222 5.92987C8.50791 5.90643 8.66621 5.90057 10.0029 5.90057ZM10.0029 5C8.64471 5 8.47469 5.00586 7.94118 5.0293C7.40962 5.05274 7.04417 5.1387 6.72757 5.26177C6.3973 5.3907 6.11784 5.56066 5.84034 5.84001C5.56088 6.11741 5.39085 6.39676 5.26187 6.72495C5.13875 7.04337 5.05277 7.40672 5.02931 7.93807C5.00586 8.47333 5 8.64329 5 10.001C5 11.3587 5.00586 11.5286 5.02931 12.0619C5.05277 12.5933 5.13875 12.9586 5.26187 13.2751C5.39085 13.6052 5.56088 13.8845 5.84034 14.1619C6.11784 14.4393 6.3973 14.6113 6.72562 14.7382C7.04417 14.8613 7.40766 14.9473 7.93922 14.9707C8.47274 14.9941 8.64276 15 10.001 15C11.3592 15 11.5292 14.9941 12.0627 14.9707C12.5943 14.9473 12.9597 14.8613 13.2763 14.7382C13.6047 14.6113 13.8841 14.4393 14.1616 14.1619C14.4391 13.8845 14.6111 13.6052 14.7381 13.277C14.8612 12.9586 14.9472 12.5952 14.9707 12.0639C14.9941 11.5306 15 11.3606 15 10.0029C15 8.64524 14.9941 8.47529 14.9707 7.94198C14.9472 7.41063 14.8612 7.04532 14.7381 6.72885C14.615 6.39676 14.445 6.11741 14.1655 5.84001C13.888 5.56261 13.6086 5.3907 13.2802 5.26372C12.9617 5.14065 12.5982 5.0547 12.0666 5.03126C11.5312 5.00586 11.3611 5 10.0029 5Z" fill="white"/>
<path d="M10.0029 7.43212C8.58413 7.43212 7.43307 8.58273 7.43307 10.001C7.43307 11.4192 8.58413 12.5698 10.0029 12.5698C11.4217 12.5698 12.5728 11.4192 12.5728 10.001C12.5728 8.58273 11.4217 7.43212 10.0029 7.43212ZM10.0029 11.6673C9.08247 11.6673 8.33594 10.9211 8.33594 10.001C8.33594 9.08088 9.08247 8.33464 10.0029 8.33464C10.9234 8.33464 11.6699 9.08088 11.6699 10.001C11.6699 10.9211 10.9234 11.6673 10.0029 11.6673Z" fill="white"/>
<path d="M13.2744 7.33051C13.2744 7.66261 13.0047 7.93024 12.6744 7.93024C12.3422 7.93024 12.0745 7.66066 12.0745 7.33051C12.0745 6.99842 12.3441 6.73079 12.6744 6.73079C13.0047 6.73079 13.2744 7.00037 13.2744 7.33051Z" fill="white"/>
</svg>
