<svg xmlns="http://www.w3.org/2000/svg" width="18" height="19" viewBox="0 0 18 19" fill="none">
    <path d="M8.84705 2.27529C11.2098 2.27529 11.4896 2.28565 12.4189 2.3271C13.2824 2.3651 13.7488 2.51018 14.0597 2.63109C14.4707 2.78999 14.7678 2.98343 15.0753 3.29087C15.3861 3.60176 15.5761 3.89538 15.735 4.30645C15.8559 4.61734 16.001 5.08713 16.039 5.94727C16.0805 6.87994 16.0908 7.15975 16.0908 9.51907C16.0908 11.8818 16.0805 12.1617 16.039 13.0909C16.001 13.9545 15.8559 14.4208 15.735 14.7317C15.5761 15.1428 15.3827 15.4398 15.0753 15.7473C14.7644 16.0582 14.4707 16.2482 14.0597 16.4071C13.7488 16.528 13.279 16.673 12.4189 16.711C11.4862 16.7525 11.2064 16.7628 8.84705 16.7628C6.48428 16.7628 6.20447 16.7525 5.27525 16.711C4.41166 16.673 3.94532 16.528 3.63443 16.4071C3.22336 16.2482 2.92629 16.0547 2.61885 15.7473C2.30796 15.4364 2.11797 15.1428 1.95907 14.7317C1.83817 14.4208 1.69309 13.951 1.65509 13.0909C1.61364 12.1582 1.60327 11.8784 1.60327 9.51907C1.60327 7.15629 1.61364 6.87649 1.65509 5.94727C1.69309 5.08368 1.83817 4.61734 1.95907 4.30645C2.11797 3.89538 2.31141 3.59831 2.61885 3.29087C2.92974 2.97998 3.22336 2.78999 3.63443 2.63109C3.94532 2.51018 4.41512 2.3651 5.27525 2.3271C6.20447 2.28565 6.48428 2.27529 8.84705 2.27529ZM8.84705 0.682831C6.44628 0.682831 6.14575 0.693194 5.20271 0.734646C4.26313 0.776098 3.61716 0.92809 3.05756 1.14571C2.47377 1.3737 1.9798 1.67423 1.48928 2.1682C0.995306 2.65872 0.694777 3.15269 0.46679 3.73303C0.249165 4.29609 0.0971738 4.93859 0.0557216 5.87818C0.0142693 6.82467 0.00390625 7.1252 0.00390625 9.52598C0.00390625 11.9268 0.0142693 12.2273 0.0557216 13.1703C0.0971738 14.1099 0.249165 14.7559 0.46679 15.3155C0.694777 15.8993 0.995306 16.3932 1.48928 16.8838C1.9798 17.3743 2.47377 17.6783 3.0541 17.9028C3.61716 18.1204 4.25967 18.2724 5.19926 18.3139C6.14229 18.3553 6.44282 18.3657 8.8436 18.3657C11.2444 18.3657 11.5449 18.3553 12.4879 18.3139C13.4275 18.2724 14.0735 18.1204 14.6331 17.9028C15.2134 17.6783 15.7074 17.3743 16.1979 16.8838C16.6884 16.3932 16.9924 15.8993 17.217 15.3189C17.4346 14.7559 17.5866 14.1134 17.628 13.1738C17.6695 12.2307 17.6798 11.9302 17.6798 9.52943C17.6798 7.12866 17.6695 6.82813 17.628 5.88509C17.5866 4.9455 17.4346 4.29954 17.217 3.73993C16.9993 3.15269 16.6988 2.65872 16.2048 2.1682C15.7143 1.67768 15.2203 1.3737 14.64 1.14917C14.0769 0.931544 13.4344 0.779553 12.4949 0.7381C11.5484 0.693194 11.2478 0.682831 8.84705 0.682831Z" fill="#272727"/>
    <path d="M8.84705 4.9835C6.33919 4.9835 4.30458 7.01812 4.30458 9.52598C4.30458 12.0338 6.33919 14.0685 8.84705 14.0685C11.3549 14.0685 13.3895 12.0338 13.3895 9.52598C13.3895 7.01812 11.3549 4.9835 8.84705 4.9835ZM8.84705 12.4725C7.22005 12.4725 5.90049 11.153 5.90049 9.52598C5.90049 7.89898 7.22005 6.57941 8.84705 6.57941C10.4741 6.57941 11.7936 7.89898 11.7936 9.52598C11.7936 11.153 10.4741 12.4725 8.84705 12.4725Z" fill="#272727"/>
    <path d="M14.6296 4.80384C14.6296 5.39108 14.1529 5.86433 13.5692 5.86433C12.9819 5.86433 12.5087 5.38763 12.5087 4.80384C12.5087 4.2166 12.9854 3.74335 13.5692 3.74335C14.1529 3.74335 14.6296 4.22005 14.6296 4.80384Z" fill="#272727"/>
</svg>