<svg viewBox="0 0 24 24" xmlns="http://www.w3.org/2000/svg">
  <path fill="#07C160" d="M8.691 2.188C3.891 2.188 0 5.476 0 9.53c0 2.212 1.17 4.203 3.002 5.55a.59.59 0 0 1 .213.665l-.39 1.48c-.019.07-.048.141-.048.213 0 .163.13.295.29.295a.326.326 0 0 0 .167-.054l1.903-1.114a.864.864 0 0 1 .717-.098 10.16 10.16 0 0 0 2.837.403c.276 0 .543-.027.811-.05-.857-2.578.157-4.972 1.932-6.446 1.703-1.415 3.882-1.98 5.853-1.838-.576-3.583-4.196-6.348-8.596-6.348zM5.785 5.991c.642 0 1.162.529 1.162 1.18a1.17 1.17 0 0 1-1.162 1.178A1.17 1.17 0 0 1 4.623 7.17c0-.651.52-1.18 1.162-1.18zm5.813 0c.642 0 1.162.529 1.162 1.18a1.17 1.17 0 0 1-1.162 1.178 1.17 1.17 0 0 1-1.162-1.178c0-.651.52-1.18 1.162-1.18zm5.34 2.867c-1.797-.052-3.746.512-5.28 1.786-1.72 1.428-2.687 3.72-1.78 6.22.942 2.453 3.666 4.229 6.884 4.229.826 0 1.622-.12 2.361-.336a.722.722 0 0 1 .598.082l1.584.926a.272.272 0 0 0 .14.045c.134 0 .24-.11.24-.245 0-.06-.024-.12-.04-.178l-.326-1.233a.582.582 0 0 1-.023-.156.49.49 0 0 1 .201-.398C23.95 18.443 25 16.59 25 14.637c0-3.487-3.19-6.349-7.095-6.476-.002.02-.002.04-.002.06 0 1.357.56 2.598 1.48 3.548l-.003.003zM14.2 10.05c-1.02 0-1.849.84-1.849 1.874a1.86 1.86 0 0 0 1.85 1.872 1.86 1.86 0 0 0 1.849-1.872c0-1.034-.83-1.874-1.85-1.874zm4.024 0c-1.02 0-1.849.84-1.849 1.874a1.86 1.86 0 0 0 1.85 1.872 1.86 1.86 0 0 0 1.849-1.872c0-1.034-.83-1.874-1.85-1.874z"/>
</svg>