<svg xmlns="http://www.w3.org/2000/svg" width="18" height="19" viewBox="0 0 18 19" fill="none">
    <path d="M3.96115 18.0485H0.294312V6.23093H3.96115V18.0485ZM2.12773 4.62076C0.950483 4.62076 0 3.6682 0 2.49321C0 1.31822 0.950483 0.365662 2.12773 0.365662C3.30015 0.365662 4.25064 1.31822 4.25064 2.49321C4.25064 3.66336 3.30015 4.62076 2.12773 4.62076ZM17.6828 18.0485H14.0208V12.3041C14.0208 10.9357 13.9967 9.17082 12.115 9.17082C10.2092 9.17082 9.91976 10.6649 9.91976 12.2074V18.0485H6.26257V6.23093H9.77501V7.84593H9.82326C10.3106 6.91755 11.5071 5.93597 13.2875 5.93597C16.9977 5.93597 17.6828 8.38266 17.6828 11.5643V18.0485Z" fill="#272727"/>
</svg>