<?xml version="1.0" encoding="UTF-8"?>
<svg id="_图层_2" data-name="图层 2" xmlns="http://www.w3.org/2000/svg" viewBox="0 0 745.52 354.22">
  <defs>
    <style>
      .cls-1 {
        fill: #fff;
        fill-rule: evenodd;
      }
    </style>
  </defs>
  <g id="_图层_1-2" data-name="图层 1">
    <g>
      <path class="cls-1" d="M487.37,264.42v-13.77c29.16-1.38,35.71-5.11,35.71-33.81V55.71c0-28.75-2.74-35.95-35.71-35.88V5.55h94.64c86.21,0,163.37,24,163.51,129.32,.12,91.03-64.2,129.55-144.74,129.55h-113.41ZM227.82,193.16v45.84c-26.18,16.72-56.29,27.79-85.75,30.03-18.02,1.36-36.21-.33-54.26-6.28C37.4,246.12-.02,200.41,0,134.26,.02,61.26,53.4,.39,134.96,0c29.22-.14,66.63,8.59,92.9,29.81l-.03,43.84h-12.4c-5.32-21.62-19.32-39.32-37.75-50.15-16.39-9.63-34.36-13.33-51.47-10.99-53.93,7.36-77.22,62.45-77.4,116.71-.22,63.84,22.22,122.88,84.13,126.38,16,.91,32.33-4.04,46.49-12.85,19.27-11.98,32.95-30.77,37.25-49.61h11.15Zm243.09,0v45.84c-26.18,16.72-56.29,27.79-85.75,30.03-18.03,1.36-36.21-.33-54.26-6.28-50.41-16.63-87.83-62.33-87.81-128.49C243.1,61.26,296.49,.39,378.05,0c29.22-.14,66.63,8.59,92.9,29.81l-.04,43.84h-12.39c-5.32-21.62-19.32-39.32-37.76-50.15-16.39-9.63-34.36-13.33-51.47-10.99-53.93,7.36-77.22,62.45-77.4,116.71-.22,63.84,22.22,122.88,84.13,126.38,16,.91,32.33-4.04,46.49-12.85,19.27-11.98,32.95-30.77,37.25-49.61h11.15Zm96.68,9.89c0,6.28,.38,11.83,1.12,16.64,4.06,26.15,23.21,27.96,44.58,27.96,60.86,0,79.34-57.36,79.34-112.67,0-67.4-30.77-114.44-96.16-114.44-3.5,0-6.74,.05-9.7,.28-20.14,1.58-19.19,9.07-19.19,32.4V203.05Z"/>
      <path class="cls-1" d="M50.18,323.93h5.38c-.41,5.69-2.13,10.09-5.15,13.2-3.02,3.1-7.11,4.65-12.26,4.65-3.07,0-5.85-.49-8.34-1.46-2.48-.98-4.7-2.47-6.65-4.49-2.16-2.18-3.79-4.7-4.9-7.55-1.11-2.86-1.67-5.92-1.67-9.21s.54-6.33,1.62-9.08c1.08-2.75,2.71-5.24,4.89-7.46,1.97-2.01,4.18-3.53,6.63-4.56,2.44-1.03,5.07-1.54,7.87-1.54,2.24,0,4.35,.36,6.33,1.07,1.98,.71,3.93,1.82,5.85,3.32l1.25-3.83h4.52v17.54h-4.83c-.49-4.09-1.77-7.26-3.87-9.51-2.08-2.24-4.77-3.36-8.06-3.36-3.86,0-6.87,1.56-9.06,4.7-2.19,3.14-3.28,7.48-3.28,13.02s1.09,9.36,3.26,12.23c2.18,2.88,5.24,4.32,9.19,4.32,3.08,0,5.57-1.02,7.49-3.07,1.91-2.04,3.17-5.02,3.78-8.92h0Zm16.62-18.13c0-1.61-.24-2.66-.73-3.13-.49-.47-1.46-.7-2.91-.7h-1.62v-4.26h12.77v17.97c1.61-2.05,3.28-3.6,5.02-4.66,1.74-1.05,3.5-1.57,5.29-1.57,3.38,0,5.8,.85,7.28,2.55,1.47,1.7,2.21,4.55,2.21,8.54v11.88c0,1.62,.24,2.66,.73,3.12,.49,.47,1.46,.71,2.91,.71h1.74v4.26h-17.75v-4.26h1.25c1.45,0,2.41-.24,2.89-.71,.48-.47,.72-1.51,.72-3.12v-11.88c0-2.22-.36-3.8-1.08-4.76-.72-.96-1.9-1.43-3.52-1.43-2.4,0-4.28,.93-5.65,2.79-1.37,1.86-2.04,4.44-2.04,7.74v7.55c0,1.62,.24,2.66,.73,3.12,.49,.47,1.46,.71,2.91,.71h1.25v4.26h-17.66v-4.26h1.62c1.45,0,2.42-.24,2.91-.71,.49-.47,.73-1.51,.73-3.12v-26.62h0Zm58.38,15.77c-.19-2.79-.74-4.81-1.67-6.1-.93-1.28-2.28-1.93-4.07-1.93s-3.33,.68-4.47,2.04c-1.15,1.36-1.92,3.36-2.28,5.99h12.49Zm2.83,8.17h5.25c-.45,3.69-1.89,6.6-4.35,8.73-2.46,2.13-5.6,3.19-9.42,3.19-4.76,0-8.55-1.47-11.39-4.4-2.82-2.95-4.24-6.87-4.24-11.79s1.43-8.78,4.29-11.76c2.86-2.98,6.64-4.47,11.34-4.47s8,1.43,10.38,4.32c2.39,2.87,3.57,7.05,3.57,12.54h-21.07c.12,3.4,.83,6,2.13,7.78,1.29,1.79,3.11,2.68,5.45,2.68s4.21-.52,5.45-1.58c1.23-1.04,2.09-2.79,2.6-5.24h0Zm10.39,10.77v-4.26h2.07c1.43,0,2.38-.23,2.85-.68,.47-.46,.7-1.51,.7-3.15v-13.93c0-1.65-.23-2.69-.7-3.14-.47-.45-1.42-.67-2.85-.67h-2.07v-4.3h13.19v5.3c1.63-2.07,3.3-3.64,5.02-4.68,1.72-1.03,3.46-1.55,5.23-1.55,3.4,0,5.85,.85,7.33,2.55,1.49,1.7,2.23,4.55,2.23,8.54v11.88c0,1.64,.24,2.69,.72,3.15,.48,.46,1.43,.68,2.86,.68h1.83v4.26h-17.78v-4.26h1.25c1.43,0,2.38-.23,2.86-.68,.48-.46,.72-1.51,.72-3.15v-11.88c0-2.22-.37-3.8-1.08-4.76-.72-.96-1.91-1.43-3.56-1.43-2.36,0-4.22,.91-5.59,2.74-1.36,1.83-2.04,4.34-2.04,7.54v7.79c0,1.64,.24,2.69,.72,3.15,.48,.46,1.42,.68,2.85,.68h1.25v4.26h-18.02Zm58.84,1.59c-3.86,0-6.52,.31-7.97,.93-1.45,.63-2.17,1.69-2.17,3.21s.8,2.56,2.4,3.29c1.59,.71,4.02,1.08,7.28,1.08,3.5,0,6.11-.4,7.82-1.18,1.71-.8,2.56-1.98,2.56-3.55,0-1.42-.66-2.4-1.98-2.95-1.32-.56-3.97-.83-7.94-.83h0Zm-5.25-21.68c0,2.63,.44,4.54,1.3,5.74,.86,1.19,2.26,1.78,4.2,1.78s3.31-.58,4.21-1.75c.9-1.18,1.35-3.02,1.35-5.53,0-2.64-.45-4.57-1.35-5.81-.9-1.23-2.3-1.85-4.21-1.85s-3.29,.61-4.18,1.81c-.89,1.2-1.33,3.07-1.33,5.6h0Zm-4,8.87c-1.46-1.29-2.54-2.64-3.23-4.04-.7-1.41-1.04-2.95-1.04-4.58,0-3.47,1.28-6.23,3.85-8.31,2.56-2.07,6.01-3.12,10.35-3.12,1.92,0,3.72,.25,5.41,.75,1.69,.5,3.24,1.23,4.67,2.21,.92-.99,1.87-1.73,2.86-2.22,.99-.49,2.06-.73,3.22-.73,2.16,0,3.86,.58,5.09,1.71,1.23,1.14,1.84,2.7,1.84,4.67,0,1.33-.39,2.43-1.16,3.28-.78,.85-1.76,1.28-2.96,1.28s-2.16-.36-2.92-1.1c-.76-.72-1.15-1.64-1.15-2.73,0-.89,.25-1.64,.76-2.23,.51-.59,1.25-1.02,2.23-1.29-.36-.3-.72-.52-1.06-.67-.35-.16-.71-.23-1.07-.23-.71,0-1.41,.22-2.09,.68-.69,.46-1.34,1.14-1.97,2.02,.56,1.04,.99,2.08,1.26,3.11,.28,1.04,.42,2.11,.42,3.24,0,3.36-1.24,6.04-3.71,8.04-2.47,2.01-5.82,3.01-10.03,3.01-1.1,0-2.22-.1-3.37-.3-1.16-.19-2.32-.48-3.5-.85-.51,.35-.9,.71-1.17,1.09-.28,.37-.42,.73-.42,1.06,0,.81,.3,1.38,.92,1.73,.6,.34,1.66,.51,3.17,.51h8.55c4.76,0,8.24,.7,10.42,2.1,2.19,1.41,3.28,3.62,3.28,6.66,0,3.29-1.52,5.83-4.56,7.57-3.04,1.74-7.42,2.62-13.14,2.62-5.19,0-9.16-.65-11.92-1.93-2.76-1.29-4.14-3.13-4.14-5.51,0-1.32,.47-2.41,1.42-3.3,.95-.88,2.41-1.59,4.38-2.12-1.63-.42-2.88-1.13-3.75-2.13-.87-1-1.31-2.21-1.31-3.65s.47-2.67,1.41-3.72c.94-1.05,2.32-1.9,4.18-2.57h0Zm70.23-5.35h5.38c-.41,5.69-2.13,10.09-5.15,13.2-3.02,3.1-7.11,4.65-12.26,4.65-3.07,0-5.85-.49-8.34-1.46-2.48-.98-4.7-2.47-6.65-4.49-2.16-2.18-3.79-4.7-4.9-7.55-1.11-2.86-1.67-5.92-1.67-9.21s.54-6.33,1.62-9.08c1.08-2.75,2.71-5.24,4.89-7.46,1.97-2.01,4.18-3.53,6.63-4.56,2.44-1.03,5.07-1.54,7.87-1.54,2.24,0,4.35,.36,6.33,1.07,1.98,.71,3.93,1.82,5.85,3.32l1.25-3.83h4.52v17.54h-4.83c-.49-4.09-1.77-7.26-3.87-9.51-2.08-2.24-4.77-3.36-8.06-3.36-3.86,0-6.87,1.56-9.06,4.7-2.19,3.14-3.28,7.48-3.28,13.02s1.09,9.36,3.26,12.23c2.18,2.88,5.24,4.32,9.19,4.32,3.08,0,5.57-1.02,7.49-3.07,1.91-2.04,3.17-5.02,3.78-8.92h0Zm16.62-18.13c0-1.61-.24-2.66-.73-3.13-.49-.47-1.46-.7-2.91-.7h-1.62v-4.26h12.77v17.97c1.61-2.05,3.28-3.6,5.02-4.66,1.74-1.05,3.5-1.57,5.3-1.57,3.38,0,5.81,.85,7.28,2.55,1.47,1.7,2.21,4.55,2.21,8.54v11.88c0,1.62,.24,2.66,.73,3.12,.49,.47,1.46,.71,2.91,.71h1.74v4.26h-17.75v-4.26h1.25c1.45,0,2.41-.24,2.89-.71,.48-.47,.72-1.51,.72-3.12v-11.88c0-2.22-.36-3.8-1.08-4.76-.72-.96-1.9-1.43-3.52-1.43-2.4,0-4.28,.93-5.65,2.79-1.37,1.86-2.04,4.44-2.04,7.74v7.55c0,1.62,.24,2.66,.73,3.12,.49,.47,1.46,.71,2.91,.71h1.25v4.26h-17.66v-4.26h1.62c1.45,0,2.42-.24,2.91-.71,.49-.47,.73-1.51,.73-3.12v-26.62h0Zm41.83,24.55v-11.86c0-1.63-.24-2.67-.73-3.13-.49-.46-1.46-.68-2.89-.68h-1.44v-4.3h12.58v19.97c0,2.22,.37,3.81,1.09,4.76,.72,.96,1.89,1.44,3.52,1.44,2.36,0,4.23-.92,5.62-2.75,1.39-1.83,2.07-4.34,2.07-7.54v-7.78c0-1.63-.24-2.67-.72-3.13-.48-.46-1.45-.68-2.92-.68h-2.87v-4.3h14.02v22.03c0,1.62,.24,2.66,.73,3.12,.49,.47,1.46,.71,2.91,.71h1.61v4.26h-12.77v-5.29c-1.6,2.06-3.28,3.61-5.02,4.67-1.74,1.05-3.5,1.59-5.29,1.59-3.38,0-5.81-.85-7.29-2.55-1.47-1.7-2.21-4.56-2.21-8.57h0Zm36.95,10.16v-4.26h2.07c1.43,0,2.38-.23,2.84-.68,.47-.46,.7-1.51,.7-3.15v-13.93c0-1.65-.23-2.69-.7-3.14-.47-.45-1.42-.67-2.84-.67h-2.07v-4.3h13.19v5.3c1.63-2.07,3.3-3.64,5.02-4.68,1.72-1.03,3.46-1.55,5.23-1.55,3.4,0,5.85,.85,7.33,2.55,1.49,1.7,2.23,4.55,2.23,8.54v11.88c0,1.64,.24,2.69,.72,3.15,.48,.46,1.43,.68,2.86,.68h1.83v4.26h-17.78v-4.26h1.25c1.43,0,2.38-.23,2.86-.68,.48-.46,.72-1.51,.72-3.15v-11.88c0-2.22-.37-3.8-1.08-4.76-.72-.96-1.91-1.43-3.56-1.43-2.35,0-4.22,.91-5.59,2.74-1.36,1.83-2.04,4.34-2.04,7.54v7.79c0,1.64,.24,2.69,.72,3.15,.48,.46,1.42,.68,2.85,.68h1.25v4.26h-18.02Zm58.84,1.59c-3.86,0-6.52,.31-7.97,.93-1.45,.63-2.17,1.69-2.17,3.21s.8,2.56,2.4,3.29c1.59,.71,4.02,1.08,7.28,1.08,3.5,0,6.11-.4,7.82-1.18,1.71-.8,2.56-1.98,2.56-3.55,0-1.42-.66-2.4-1.98-2.95-1.32-.56-3.97-.83-7.94-.83h0Zm-5.25-21.68c0,2.63,.44,4.54,1.3,5.74,.86,1.19,2.26,1.78,4.2,1.78s3.31-.58,4.21-1.75c.9-1.18,1.34-3.02,1.34-5.53,0-2.64-.45-4.57-1.34-5.81-.9-1.23-2.31-1.85-4.21-1.85s-3.29,.61-4.18,1.81c-.89,1.2-1.33,3.07-1.33,5.6h0Zm-4,8.87c-1.46-1.29-2.54-2.64-3.23-4.04-.7-1.41-1.04-2.95-1.04-4.58,0-3.47,1.28-6.23,3.85-8.31,2.56-2.07,6.01-3.12,10.35-3.12,1.92,0,3.72,.25,5.41,.75,1.69,.5,3.24,1.23,4.67,2.21,.92-.99,1.87-1.73,2.86-2.22,.99-.49,2.06-.73,3.22-.73,2.16,0,3.86,.58,5.08,1.71,1.23,1.14,1.85,2.7,1.85,4.67,0,1.33-.39,2.43-1.16,3.28-.78,.85-1.76,1.28-2.96,1.28s-2.16-.36-2.92-1.1c-.76-.72-1.15-1.64-1.15-2.73,0-.89,.25-1.64,.76-2.23,.51-.59,1.25-1.02,2.23-1.29-.36-.3-.72-.52-1.06-.67-.35-.16-.71-.23-1.07-.23-.71,0-1.41,.22-2.08,.68-.69,.46-1.34,1.14-1.97,2.02,.56,1.04,.99,2.08,1.26,3.11,.28,1.04,.42,2.11,.42,3.24,0,3.36-1.24,6.04-3.71,8.04-2.47,2.01-5.82,3.01-10.04,3.01-1.1,0-2.22-.1-3.37-.3-1.16-.19-2.32-.48-3.5-.85-.51,.35-.9,.71-1.17,1.09-.28,.37-.42,.73-.42,1.06,0,.81,.3,1.38,.92,1.73,.6,.34,1.66,.51,3.17,.51h8.55c4.76,0,8.24,.7,10.42,2.1,2.19,1.41,3.28,3.62,3.28,6.66,0,3.29-1.52,5.83-4.56,7.57-3.04,1.74-7.42,2.62-13.14,2.62-5.19,0-9.16-.65-11.92-1.93-2.76-1.29-4.14-3.13-4.14-5.51,0-1.32,.47-2.41,1.42-3.3,.95-.88,2.41-1.59,4.38-2.12-1.63-.42-2.88-1.13-3.75-2.13-.88-1-1.31-2.21-1.31-3.65s.47-2.67,1.41-3.72c.94-1.05,2.32-1.9,4.18-2.57h0Zm101.21,11.23v-4.86h2.44c1.86,0,3.01-.22,3.46-.67,.45-.45,.67-1.54,.67-3.28v-25.2c0-1.74-.22-2.84-.67-3.29-.45-.45-1.6-.67-3.46-.67h-2.44v-4.82h23.82c7.33,0,12.86,1.81,16.62,5.42,3.75,3.62,5.63,8.92,5.63,15.95s-1.89,12.34-5.65,15.97c-3.76,3.64-9.3,5.46-16.6,5.46h-23.82Zm15.39-4.86h5.49c3.28,0,5.73-.25,7.36-.78,1.64-.52,3.03-1.4,4.22-2.65,1.18-1.24,2.11-3.03,2.79-5.36,.68-2.33,1.02-4.92,1.02-7.78s-.35-5.46-1.02-7.76c-.69-2.31-1.62-4.08-2.79-5.33-1.19-1.24-2.58-2.13-4.22-2.66-1.63-.53-4.07-.8-7.36-.8h-5.49v33.11h0Zm58.43-14.08c-.19-2.79-.74-4.81-1.67-6.1-.93-1.28-2.28-1.93-4.07-1.93s-3.33,.68-4.47,2.04c-1.15,1.36-1.92,3.36-2.28,5.99h12.5Zm2.83,8.17h5.25c-.45,3.69-1.9,6.6-4.35,8.73-2.46,2.13-5.6,3.19-9.42,3.19-4.76,0-8.55-1.47-11.39-4.4-2.82-2.95-4.24-6.87-4.24-11.79s1.43-8.78,4.29-11.76c2.86-2.98,6.64-4.47,11.34-4.47s8,1.43,10.38,4.32c2.39,2.87,3.58,7.05,3.58,12.54h-21.07c.13,3.4,.83,6,2.13,7.78,1.29,1.79,3.11,2.68,5.45,2.68s4.21-.52,5.45-1.58c1.23-1.04,2.09-2.79,2.6-5.24h0Zm10.88,11.14v-12.3h4.57c.6,2.74,1.74,4.84,3.46,6.29,1.73,1.46,3.88,2.18,6.49,2.18,1.58,0,2.86-.36,3.81-1.07,.96-.71,1.44-1.68,1.44-2.88,0-.96-.39-1.73-1.16-2.31-.78-.6-2.13-1.14-4.09-1.64l-4.64-1.13c-3.24-.81-5.64-1.97-7.21-3.5-1.56-1.53-2.35-3.47-2.35-5.82,0-2.82,1.05-5.1,3.15-6.85,2.09-1.74,4.87-2.62,8.31-2.62,1.62,0,3.17,.25,4.64,.77,1.46,.51,2.89,1.28,4.27,2.32l1.38-2.37h3.57v11.16h-4.25c-.62-2.31-1.75-4.09-3.36-5.38-1.6-1.29-3.53-1.94-5.77-1.94-1.48,0-2.64,.32-3.49,.95-.84,.64-1.27,1.51-1.27,2.63,0,.81,.28,1.48,.85,2.01,.57,.52,1.46,.94,2.66,1.22l5.68,1.34c3.67,.89,6.34,2.12,8,3.71,1.67,1.57,2.5,3.64,2.5,6.17,0,3.03-1.07,5.42-3.18,7.16-2.11,1.75-5.03,2.62-8.76,2.62-1.84,0-3.55-.26-5.13-.8-1.56-.53-3.19-1.39-4.86-2.6l-1.12,2.67h-4.15Zm32.21-.37v-4.26h2.31c1.43,0,2.38-.23,2.86-.68,.48-.46,.72-1.51,.72-3.15v-13.93c0-1.65-.24-2.69-.72-3.14-.48-.45-1.43-.67-2.86-.67h-2.31v-4.3h13.52v22.03c0,1.62,.24,2.66,.72,3.12,.48,.47,1.44,.71,2.88,.71h1.9v4.26h-19.01Zm4.5-38.6c0-1.33,.45-2.44,1.33-3.36,.89-.91,1.98-1.37,3.28-1.37s2.44,.46,3.35,1.37c.9,.92,1.35,2.03,1.35,3.36s-.45,2.46-1.35,3.39c-.91,.93-2.02,1.4-3.35,1.4s-2.38-.47-3.27-1.4c-.9-.94-1.35-2.06-1.35-3.39h0Zm35.27,40.18c-3.86,0-6.52,.31-7.97,.93-1.45,.63-2.17,1.69-2.17,3.21s.8,2.56,2.4,3.29c1.59,.71,4.02,1.08,7.28,1.08,3.5,0,6.11-.4,7.82-1.18,1.71-.8,2.56-1.98,2.56-3.55,0-1.42-.66-2.4-1.98-2.95-1.32-.56-3.97-.83-7.94-.83h0Zm-5.25-21.68c0,2.63,.44,4.54,1.3,5.74,.86,1.19,2.26,1.78,4.2,1.78s3.31-.58,4.21-1.75c.9-1.18,1.34-3.02,1.34-5.53,0-2.64-.45-4.57-1.34-5.81-.9-1.23-2.3-1.85-4.21-1.85s-3.29,.61-4.18,1.81c-.89,1.2-1.33,3.07-1.33,5.6h0Zm-4,8.87c-1.46-1.29-2.54-2.64-3.23-4.04-.7-1.41-1.04-2.95-1.04-4.58,0-3.47,1.28-6.23,3.85-8.31,2.56-2.07,6.01-3.12,10.35-3.12,1.92,0,3.72,.25,5.41,.75,1.69,.5,3.24,1.23,4.67,2.21,.92-.99,1.87-1.73,2.86-2.22,.99-.49,2.06-.73,3.22-.73,2.16,0,3.86,.58,5.09,1.71,1.23,1.14,1.85,2.7,1.85,4.67,0,1.33-.39,2.43-1.16,3.28-.78,.85-1.76,1.28-2.96,1.28s-2.16-.36-2.92-1.1c-.76-.72-1.15-1.64-1.15-2.73,0-.89,.25-1.64,.76-2.23,.51-.59,1.25-1.02,2.23-1.29-.36-.3-.72-.52-1.06-.67-.35-.16-.71-.23-1.07-.23-.71,0-1.41,.22-2.08,.68-.69,.46-1.34,1.14-1.97,2.02,.56,1.04,.99,2.08,1.26,3.11,.28,1.04,.42,2.11,.42,3.24,0,3.36-1.24,6.04-3.71,8.04-2.47,2.01-5.82,3.01-10.04,3.01-1.1,0-2.22-.1-3.37-.3-1.16-.19-2.32-.48-3.5-.85-.51,.35-.9,.71-1.17,1.09-.28,.37-.42,.73-.42,1.06,0,.81,.3,1.38,.92,1.73,.6,.34,1.66,.51,3.17,.51h8.56c4.76,0,8.23,.7,10.42,2.1,2.19,1.41,3.28,3.62,3.28,6.66,0,3.29-1.52,5.83-4.56,7.57-3.04,1.74-7.42,2.62-13.14,2.62-5.19,0-9.16-.65-11.92-1.93-2.76-1.29-4.14-3.13-4.14-5.51,0-1.32,.47-2.41,1.42-3.3,.95-.88,2.41-1.59,4.38-2.12-1.63-.42-2.87-1.13-3.75-2.13-.88-1-1.31-2.21-1.31-3.65s.47-2.67,1.41-3.72c.94-1.05,2.32-1.9,4.18-2.57h0Zm35.83,11.23v-4.26h2.08c1.43,0,2.38-.23,2.84-.68,.47-.46,.7-1.51,.7-3.15v-13.93c0-1.65-.23-2.69-.7-3.14-.47-.45-1.42-.67-2.84-.67h-2.08v-4.3h13.2v5.3c1.63-2.07,3.3-3.64,5.02-4.68,1.72-1.03,3.46-1.55,5.23-1.55,3.4,0,5.85,.85,7.33,2.55,1.49,1.7,2.23,4.55,2.23,8.54v11.88c0,1.64,.24,2.69,.72,3.15,.48,.46,1.42,.68,2.85,.68h1.83v4.26h-17.78v-4.26h1.25c1.43,0,2.38-.23,2.86-.68,.48-.46,.72-1.51,.72-3.15v-11.88c0-2.22-.37-3.8-1.09-4.76-.72-.96-1.91-1.43-3.55-1.43-2.36,0-4.22,.91-5.59,2.74-1.36,1.83-2.04,4.34-2.04,7.54v7.79c0,1.64,.24,2.69,.72,3.15,.48,.46,1.43,.68,2.86,.68h1.25v4.26h-18.02Z"/>
      <path class="cls-1" d="M470.22,301.68c10.22,0,18.56,8.34,18.56,18.56s-8.34,18.56-18.56,18.56-18.56-8.34-18.56-18.56,8.34-18.56,18.56-18.56h0Zm-13.37,15.29v6.54h10.1v10.1h6.54v-10.1h10.1v-6.54h-10.1v-10.1h-6.54v10.1h-10.1Z"/>
    </g>
  </g>
</svg>